<?xml version="1.0" encoding="UTF-8"?>
<svg id="Layer_3" xmlns="http://www.w3.org/2000/svg" version="1.1" viewBox="0 0 1181 250">
  <!-- Generator: Adobe Illustrator 30.2.1, SVG Export Plug-In . SVG Version: 2.1.1 Build 1)  -->
  <defs>
    <style>
      .st0 {
        fill: #fff;
      }
    </style>
  </defs>
  <g>
    <path class="st0" d="M267.86,191.74V39.1h60.54c11.2,0,20.54,1.69,28.02,5.07,7.48,3.38,13.08,8.01,16.8,13.88,3.72,5.87,5.58,12.64,5.58,20.28,0,6.01-1.2,11.25-3.59,15.72-2.39,4.47-5.65,8.13-9.78,10.96s-8.83,4.87-14.09,6.1v1.54c5.74.21,11.15,1.83,16.24,4.87s9.22,7.27,12.4,12.7c3.18,5.43,4.76,11.9,4.76,19.41,0,8.06-1.98,15.26-5.94,21.61s-9.82,11.35-17.57,15.01c-7.75,3.65-17.4,5.48-28.94,5.48h-64.44.01ZM299.1,103.23h24.69c4.44,0,8.43-.8,11.99-2.41,3.55-1.6,6.33-3.89,8.35-6.86,2.01-2.97,3.02-6.5,3.02-10.6,0-5.53-1.96-10.04-5.89-13.52-3.93-3.48-9.54-5.22-16.85-5.22h-25.3v38.62h0ZM299.1,166.03h27.04c9.15,0,15.84-1.78,20.08-5.33,4.23-3.55,6.35-8.23,6.35-14.03,0-4.3-1.04-8.11-3.12-11.42s-5.04-5.91-8.86-7.79c-3.83-1.88-8.37-2.82-13.62-2.82h-27.86v41.39h-.01Z"/>
    <path class="st0" d="M447.72,193.99c-11.47,0-21.41-2.47-29.81-7.43-8.4-4.95-14.87-11.85-19.41-20.69s-6.81-19.14-6.81-30.89,2.27-22.25,6.81-31.09,11.01-15.74,19.41-20.69c8.4-4.95,18.34-7.43,29.81-7.43s21.49,2.48,29.86,7.43c8.36,4.95,14.82,11.85,19.36,20.69,4.54,8.84,6.81,19.21,6.81,31.09s-2.27,22.04-6.81,30.89c-4.54,8.84-11,15.74-19.36,20.69-8.37,4.95-18.32,7.43-29.86,7.43ZM447.72,169.82c5.46,0,10.04-1.52,13.73-4.56s6.45-7.2,8.3-12.5c1.84-5.29,2.77-11.25,2.77-17.88s-.92-12.77-2.77-18.03c-1.84-5.26-4.61-9.39-8.3-12.4-3.69-3-8.26-4.51-13.73-4.51s-10.02,1.5-13.68,4.51c-3.65,3.01-6.4,7.14-8.25,12.4-1.84,5.26-2.77,11.27-2.77,18.03s.92,12.58,2.77,17.88c1.84,5.29,4.59,9.46,8.25,12.5,3.65,3.04,8.21,4.56,13.68,4.56Z"/>
    <path class="st0" d="M566.95,193.99c-11.47,0-21.41-2.47-29.81-7.43-8.4-4.95-14.87-11.85-19.41-20.69-4.54-8.84-6.81-19.14-6.81-30.89s2.27-22.25,6.81-31.09c4.54-8.84,11.01-15.74,19.41-20.69,8.4-4.95,18.34-7.43,29.81-7.43s21.49,2.48,29.86,7.43c8.36,4.95,14.82,11.85,19.36,20.69,4.54,8.84,6.81,19.21,6.81,31.09s-2.27,22.04-6.81,30.89c-4.54,8.84-11,15.74-19.36,20.69-8.37,4.95-18.32,7.43-29.86,7.43ZM566.95,169.82c5.46,0,10.04-1.52,13.73-4.56s6.45-7.2,8.3-12.5c1.84-5.29,2.77-11.25,2.77-17.88s-.92-12.77-2.77-18.03c-1.84-5.26-4.61-9.39-8.3-12.4-3.69-3-8.26-4.51-13.73-4.51s-10.02,1.5-13.68,4.51c-3.65,3.01-6.4,7.14-8.25,12.4-1.84,5.26-2.77,11.27-2.77,18.03s.92,12.58,2.77,17.88c1.84,5.29,4.59,9.46,8.25,12.5,3.65,3.04,8.21,4.56,13.68,4.56Z"/>
    <path class="st0" d="M691.81,77.21v23.46h-67.92v-23.46h67.92ZM639.67,49.96h30.73v108.28c0,3.62.8,6.3,2.41,8.04,1.6,1.74,4.28,2.61,8.04,2.61,1.16,0,2.8-.15,4.92-.46,2.12-.31,3.72-.6,4.81-.87l4.41,23.05c-3.42,1.02-6.81,1.74-10.19,2.15-3.38.41-6.61.61-9.68.61-11.47,0-20.25-2.8-26.33-8.4-6.08-5.6-9.12-13.62-9.12-24.07V49.96h0Z"/>
    <path class="st0" d="M703.57,191.74V39.1h31.24v126.72h65.87v25.92h-97.11Z"/>
    <path class="st0" d="M863.26,193.99c-11.47,0-21.41-2.47-29.81-7.43-8.4-4.95-14.87-11.85-19.41-20.69s-6.81-19.14-6.81-30.89,2.27-22.25,6.81-31.09,11.01-15.74,19.41-20.69c8.4-4.95,18.34-7.43,29.81-7.43s21.49,2.48,29.86,7.43c8.36,4.95,14.82,11.85,19.36,20.69,4.54,8.84,6.81,19.21,6.81,31.09s-2.27,22.04-6.81,30.89c-4.54,8.84-11,15.74-19.36,20.69-8.37,4.95-18.32,7.43-29.86,7.43ZM863.26,169.82c5.46,0,10.04-1.52,13.73-4.56s6.45-7.2,8.3-12.5c1.84-5.29,2.77-11.25,2.77-17.88s-.92-12.77-2.77-18.03c-1.84-5.26-4.61-9.39-8.3-12.4-3.69-3-8.26-4.51-13.73-4.51s-10.02,1.5-13.68,4.51c-3.65,3.01-6.4,7.14-8.25,12.4-1.84,5.26-2.77,11.27-2.77,18.03s.92,12.58,2.77,17.88c1.84,5.29,4.59,9.46,8.25,12.5,3.65,3.04,8.21,4.56,13.68,4.56Z"/>
    <path class="st0" d="M982.49,193.99c-11.47,0-21.41-2.47-29.81-7.43-8.4-4.95-14.87-11.85-19.41-20.69s-6.81-19.14-6.81-30.89,2.27-22.25,6.81-31.09,11.01-15.74,19.41-20.69c8.4-4.95,18.34-7.43,29.81-7.43s21.49,2.48,29.86,7.43c8.36,4.95,14.82,11.85,19.36,20.69,4.54,8.84,6.81,19.21,6.81,31.09s-2.27,22.04-6.81,30.89c-4.54,8.84-11,15.74-19.36,20.69-8.37,4.95-18.32,7.43-29.86,7.43ZM982.49,169.82c5.46,0,10.04-1.52,13.73-4.56s6.45-7.2,8.3-12.5c1.84-5.29,2.77-11.25,2.77-17.88s-.92-12.77-2.77-18.03c-1.84-5.26-4.61-9.39-8.3-12.4-3.69-3-8.26-4.51-13.73-4.51s-10.02,1.5-13.68,4.51c-3.65,3.01-6.4,7.14-8.25,12.4-1.84,5.26-2.77,11.27-2.77,18.03s.92,12.58,2.77,17.88c1.84,5.29,4.59,9.46,8.25,12.5,3.65,3.04,8.21,4.56,13.68,4.56Z"/>
    <path class="st0" d="M1050.49,234.56V77.21h30.22v19.26h1.43c1.43-3,3.47-6.11,6.1-9.32s6.1-5.91,10.4-8.09c4.3-2.19,9.7-3.28,16.19-3.28,8.47,0,16.22,2.19,23.25,6.56,7.03,4.37,12.65,10.93,16.85,19.67s6.3,19.64,6.3,32.68-2.05,23.44-6.15,32.22-9.66,15.43-16.7,19.98c-7.03,4.54-14.96,6.81-23.77,6.81-6.22,0-11.47-1.06-15.78-3.18-4.3-2.12-7.8-4.73-10.5-7.84s-4.76-6.2-6.2-9.27h-.92v61.16h-30.73.01ZM1105.19,169c5.33,0,9.82-1.47,13.47-4.41s6.42-7,8.3-12.19,2.82-11.13,2.82-17.82-.94-12.6-2.82-17.72c-1.88-5.12-4.63-9.15-8.25-12.09-3.62-2.94-8.13-4.4-13.52-4.4s-9.73,1.42-13.42,4.25c-3.69,2.83-6.49,6.8-8.4,11.88-1.91,5.09-2.87,11.11-2.87,18.08s.97,12.93,2.92,18.08c1.95,5.16,4.76,9.17,8.45,12.04s8.13,4.3,13.32,4.3h0Z"/>
  </g>
  <path class="st0" d="M171.45,227.78c-33.46,0-60.67-27.22-60.67-60.67,0-11.04,2.97-21.41,8.14-30.34h-38.48c-33.46,0-60.67-27.22-60.67-60.67S46.99,15.43,80.44,15.43s60.67,27.22,60.67,60.67c0,11.04-2.97,21.41-8.14,30.34h38.48c33.46,0,60.67,27.22,60.67,60.67s-27.22,60.67-60.67,60.67ZM171.45,136.76c-16.73,0-30.34,13.61-30.34,30.34s13.61,30.34,30.34,30.34,30.34-13.61,30.34-30.34-13.61-30.34-30.34-30.34ZM80.44,45.75c-16.73,0-30.34,13.61-30.34,30.34s13.61,30.34,30.34,30.34,30.34-13.61,30.34-30.34-13.61-30.34-30.34-30.34Z"/>
</svg>