<?xml version="1.0" encoding="UTF-8"?>
<svg id="Layer_1" data-name="Layer 1" xmlns="http://www.w3.org/2000/svg" viewBox="0 0 2000 314.27">
  <defs>
    <style>
      .cls-1 {
        fill: #fff;
      }
    </style>
  </defs>
  <g>
    <path class="cls-1" d="M546.68,175.64c-4.2-4.2-10.73-4.58-15.34-1.19l-6.84-6.84c1.6-2.12,2.58-4.73,2.58-7.58,0-6.99-5.67-12.66-12.66-12.66s-12.66,5.67-12.66,12.66,5.67,12.66,12.66,12.66c2.86,0,5.46-.98,7.58-2.57l6.84,6.84c-2.99,4.07-3.04,9.6-.14,13.74l-6.83,6.49c-2.04-1.48-4.61-2.41-7.45-2.41-6.51,0-11.8,4.67-11.8,10.44s5.28,10.45,11.8,10.45,11.8-4.68,11.8-10.45c0-2.03-.69-3.91-1.82-5.52l6.78-6.45c4.65,3.62,11.33,3.36,15.58-.89,4.6-4.61,4.59-12.1-.06-16.74"/>
    <path class="cls-1" d="M500.34,129.63l7.25-6.5c1.93,1.21,4.27,1.94,6.81,1.94s4.89-.73,6.81-1.94l7.27,6.52c-2.9,4.5-2.33,10.62,1.68,14.63,4,3.99,10.08,4.57,14.57,1.71l6.38,7.19c-1.23,1.94-1.97,4.29-1.97,6.86,0,6.51,4.68,11.79,10.45,11.79s10.43-5.28,10.43-11.79-4.67-11.8-10.43-11.8c-2.29,0-4.38.85-6.1,2.26l-6.13-6.9c3.75-4.55,3.49-11.33-.85-15.67-4.32-4.32-11.07-4.6-15.62-.89l-6.99-6.26c1.43-1.73,2.29-3.84,2.29-6.14,0-5.77-5.28-10.44-11.8-10.44s-11.8,4.67-11.8,10.44c0,2.3.87,4.41,2.29,6.14l-6.98,6.26c-4.16-3.43-10.02-3.68-14.33-.66l-4.5-4.69c2.57-3.37,3.05-7.63,1.39-10.95l5.96-5.05c3.61,2.8,9.16,2.5,13.18-.99,4.5-3.91,5.34-10.3,1.89-14.28-1.75-2.02-4.27-3.03-6.91-3.03s-5.27.96-7.5,2.89c-3.94,3.42-5.07,8.75-2.97,12.69l-5.88,4.99c-3.83-3.11-9.82-2.52-13.76,1.55-4.15,4.28-4.45,10.71-.66,14.39,3.33,3.23,8.69,3.23,12.76.29l4.47,4.66c-3.55,4.63-3.21,11.3,1.08,15.59,4.66,4.67,12.17,4.71,16.78.11,4.03-4.03,4.5-10.29,1.43-14.92"/>
    <path class="cls-1" d="M469,148.24c-5.77,0-10.44,5.28-10.44,11.8,0,2.65.81,5.08,2.12,7.05l-4.78,5.63c-1.72-1.31-3.8-2.04-6.01-1.88-1.66.13-3.16.77-4.46,1.71l-5.91-7.04c.77-1.6,1.23-3.46,1.23-5.47s-.48-3.96-1.28-5.58l5.66-6.92c1.27.91,2.74,1.52,4.35,1.64,5.25.4,9.87-4.1,10.32-10.04.45-5.94-3.45-11.07-8.71-11.46-1.6-.13-3.12.25-4.49.94l-3.33-5.69c.29-.37.58-.73.85-1.14,2.73-4.24,2.66-8.87-.18-10.33-.59-.31-1.25-.45-1.95-.45-2.68,0-5.96,2.11-8.13,5.46-2.74,4.24-2.66,8.86.17,10.33,1.82.94,4.33.35,6.62-1.32l3.1,5.29c-1.64,1.79-2.76,4.2-2.97,6.95-.2,2.72.54,5.25,1.87,7.25l-5.36,6.55c-1.33-1.2-2.93-1.92-4.68-1.92-4.49,0-8.14,4.68-8.14,10.45s3.64,10.45,8.14,10.45c1.78,0,3.42-.76,4.76-2.01l5.6,6.68c-1.29,1.99-2,4.47-1.8,7.15.45,5.94,5.07,10.43,10.32,10.03,5.26-.39,9.15-5.52,8.72-11.47-.16-2.08-.85-3.96-1.88-5.54l4.75-5.59c1.68,1.31,3.72,2.08,5.91,2.08,5.77,0,10.44-5.28,10.44-11.79s-4.68-11.8-10.44-11.8"/>
    <path class="cls-1" d="M596.47,149.59c-1.79,0-3.41.82-4.73,2.15l-5.87-6.89c1.26-1.97,1.96-4.43,1.76-7.08-.19-2.57-1.19-4.82-2.66-6.57l2.79-4.29c2.41,1.96,5.13,2.65,7.05,1.44,2.76-1.74,2.77-6.69.02-11.04-2.09-3.33-5.18-5.35-7.76-5.35-.8,0-1.55.2-2.2.61-2.76,1.73-2.77,6.68-.03,11.04.14.22.29.4.44.6l-3.04,4.68c-1.48-.84-3.16-1.29-4.93-1.16-5.26.39-9.15,5.52-8.71,11.47.45,5.94,5.07,10.43,10.33,10.04,1.69-.13,3.21-.78,4.52-1.76l6.26,7.35c-.67,1.54-1.09,3.3-1.09,5.21,0,5.77,3.52,10.45,7.86,10.45s7.86-4.68,7.86-10.45-3.52-10.45-7.86-10.45"/>
    <path class="cls-1" d="M460.38,103.41c2.66-2.44,4.04-5.51,3.89-8l6.72-4.85c1.87.7,4.5.51,7.19-.72,4.47-2.05,7.39-6.18,6.51-9.22-.54-1.91-2.45-2.94-4.89-2.94-1.46,0-3.12.37-4.79,1.14-4.44,2.04-7.35,6.12-6.53,9.16l-5.8,4.19c-2.4-1.86-6.83-.97-10.34,2.26-3.8,3.48-5.08,8.31-2.85,10.78,2.22,2.48,7.1,1.67,10.89-1.81"/>
    <path class="cls-1" d="M593.18,192.99c-1.72-.81-4.01-.24-6.12,1.26l-2.36-4.53c1.84-1.81,3.1-4.4,3.31-7.34.45-5.94-3.46-11.07-8.71-11.47-.21-.02-.43-.02-.64-.02-4.99,0-9.26,4.37-9.69,10.07-.18,2.43.4,4.71,1.47,6.6l-6.95,7.31c-3.83-2.33-9.22-1.5-12.86,2.25-4.15,4.27-4.45,10.72-.66,14.39,3.12,3.03,8.03,3.18,11.99.76l5.14,6.48c-2.92,3.32-3.99,7.19-2.34,9.11.63.72,1.56,1.07,2.66,1.08h.08c2.15-.02,4.92-1.3,7.37-3.6,3.74-3.53,5.28-8.12,3.43-10.25-1.6-1.85-5.21-1.24-8.58,1.25l-5.04-6.35c3.35-3.79,3.86-9.03,1.38-12.65l6.65-6.99c1.4,1.18,3.09,1.95,4.98,2.09,1.42.11,2.78-.17,4.04-.7l2.65,5.09c-.39.49-.76,1.01-1.1,1.57-2.6,4.31-2.39,8.89.48,10.24,2.87,1.35,7.3-1.06,9.9-5.37,2.6-4.31,2.39-8.9-.47-10.24"/>
  </g>
  <g>
    <path class="cls-1" d="M625.13,111.9h4.41v50.84h-4.41v-50.84Z"/>
    <path class="cls-1" d="M640.37,126.14h4.13v5.91c1.8-2.42,3.86-4.2,6.16-5.34,2.3-1.14,4.78-1.71,7.44-1.71,4.08,0,7.14,1.13,9.19,3.38s3.06,5.57,3.06,9.93v24.43h-4.13v-23.64c0-3.66-.75-6.31-2.24-7.98-1.5-1.66-3.74-2.49-6.73-2.49-1.76,0-3.43.3-5.02.89-1.59.59-3.03,1.51-4.31,2.74-1.24,1.14-2.11,2.27-2.63,3.38-.52,1.12-.78,2.74-.78,4.88v22.22h-4.13v-36.6Z"/>
    <path class="cls-1" d="M703.82,153.2c0-1.95-.56-3.48-1.67-4.59-1.12-1.11-3.36-1.96-6.73-2.53l-4.13-.64c-4.08-.66-7.12-1.76-9.12-3.28-1.99-1.52-2.99-3.82-2.99-6.91s1.27-5.74,3.81-7.55c2.54-1.8,5.88-2.71,10-2.71,3.13,0,5.65.38,7.55,1.14,1.9.76,3.37,1.85,4.42,3.28,1.04,1.42,1.83,3.11,2.35,5.06l-3.78.64c-.76-2.33-1.88-4.04-3.35-5.13-1.47-1.09-3.82-1.64-7.05-1.64-3.56,0-6.11.62-7.65,1.85-1.54,1.24-2.31,2.85-2.31,4.84,0,1.85.58,3.29,1.74,4.31,1.16,1.02,3.29,1.79,6.37,2.31l4.63.71c4.46.76,7.61,1.95,9.44,3.56,1.83,1.61,2.74,4.04,2.74,7.26s-1.2,5.82-3.6,7.76c-2.4,1.95-5.95,2.92-10.65,2.92-4.42,0-8.05-.89-10.9-2.67-2.85-1.78-4.44-4.66-4.77-8.65h3.99c.43,2.75,1.61,4.76,3.56,6.02,1.95,1.26,4.63,1.89,8.05,1.89s6.06-.63,7.66-1.89c1.59-1.26,2.38-3.05,2.38-5.38Z"/>
    <path class="cls-1" d="M718.56,151.63v-22.15h-5.7v-3.35h5.7v-10.11h4.13v10.11h10.89v3.35h-10.89v23.21c0,2.33.48,4.13,1.46,5.41.97,1.28,2.48,1.92,4.52,1.92,1,0,1.9-.08,2.71-.25.81-.17,1.57-.39,2.28-.68l.79,3.28c-.9.33-1.87.61-2.88.82-1.02.21-2.17.32-3.45.32-3.66,0-6.16-1.04-7.51-3.13s-2.03-5.01-2.03-8.76Z"/>
    <path class="cls-1" d="M740.28,111.9h4.27v6.91h-4.27v-6.91ZM740.35,126.14h4.13v36.6h-4.13v-36.6Z"/>
    <path class="cls-1" d="M756.66,151.63v-22.15h-5.7v-3.35h5.7v-10.11h4.13v10.11h10.89v3.35h-10.89v23.21c0,2.33.48,4.13,1.46,5.41.97,1.28,2.48,1.92,4.52,1.92,1,0,1.9-.08,2.71-.25.81-.17,1.57-.39,2.28-.68l.79,3.28c-.9.33-1.87.61-2.88.82-1.02.21-2.17.32-3.45.32-3.66,0-6.16-1.04-7.51-3.13s-2.03-5.01-2.03-8.76Z"/>
    <path class="cls-1" d="M778.16,150.49v-24.35h4.13v23.57c0,3.66.71,6.33,2.14,8.01,1.42,1.69,3.61,2.53,6.55,2.53,3.37,0,6.36-1.23,8.97-3.7,1.23-1.09,2.1-2.2,2.6-3.31.5-1.12.75-2.76.75-4.95v-22.15h4.13v36.6h-4.06v-6.12c-3.42,4.84-7.86,7.26-13.32,7.26-7.93,0-11.89-4.46-11.89-13.39Z"/>
    <path class="cls-1" d="M819.46,151.63v-22.15h-5.7v-3.35h5.7v-10.11h4.13v10.11h10.89v3.35h-10.89v23.21c0,2.33.49,4.13,1.46,5.41.97,1.28,2.48,1.92,4.52,1.92,1,0,1.9-.08,2.71-.25.81-.17,1.57-.39,2.28-.68l.78,3.28c-.9.33-1.86.61-2.88.82s-2.17.32-3.45.32c-3.66,0-6.16-1.04-7.51-3.13-1.35-2.09-2.03-5.01-2.03-8.76Z"/>
    <path class="cls-1" d="M839.76,144.72c0-6.31,1.54-11.18,4.63-14.6,3.08-3.42,7.17-5.13,12.25-5.13s9.17,1.64,11.71,4.91c2.54,3.28,3.81,7.69,3.81,13.25v2.28h-28.2c.14,4.8,1.29,8.5,3.45,11.11,2.16,2.61,5.23,3.92,9.22,3.92,3.13,0,5.58-.64,7.33-1.92,1.76-1.28,2.92-3.09,3.49-5.41h3.99c-.62,3.32-2.17,5.95-4.66,7.87-2.49,1.92-5.88,2.88-10.15,2.88-5.41,0-9.58-1.68-12.5-5.06-2.92-3.37-4.38-8.07-4.38-14.1ZM847.42,132.19c-1.97,2.61-3.1,5.96-3.38,10.04h24c-.14-4.51-1.09-7.96-2.85-10.36-1.76-2.4-4.63-3.6-8.62-3.6s-7.18,1.31-9.15,3.92Z"/>
    <path class="cls-1" d="M895.16,144.51c0-6.08,1.57-10.85,4.7-14.31,3.13-3.46,7.36-5.2,12.68-5.2s9.56,1.72,12.6,5.16c3.04,3.44,4.56,8.18,4.56,14.21s-1.54,10.79-4.63,14.28c-3.09,3.49-7.31,5.23-12.68,5.23s-9.7-1.72-12.71-5.16c-3.02-3.44-4.52-8.18-4.52-14.21ZM899.58,144.44c0,4.89,1.05,8.77,3.17,11.64,2.11,2.87,5.33,4.31,9.65,4.31s7.62-1.45,9.76-4.34c2.14-2.89,3.2-6.79,3.2-11.68s-1.07-8.7-3.2-11.57c-2.14-2.87-5.39-4.31-9.76-4.31s-7.54,1.44-9.65,4.31c-2.11,2.87-3.17,6.75-3.17,11.64Z"/>
    <path class="cls-1" d="M940.31,129.48h-5.7v-3.35h5.7v-3.85c0-3.66,1.02-6.4,3.06-8.22,2.04-1.83,4.58-2.74,7.62-2.74.95,0,1.89.06,2.81.18.93.12,1.84.35,2.74.68l-.71,3.28c-.81-.24-1.54-.4-2.21-.5-.67-.09-1.35-.14-2.06-.14-2.14,0-3.85.59-5.13,1.78-1.28,1.19-1.92,3.06-1.92,5.63v3.92h10.18v3.35h-10.18v33.26h-4.2v-33.26Z"/>
    <path class="cls-1" d="M977.84,111.9h30.48v3.92h-26.06v19.37h24.5v3.99h-24.5v23.57h-4.42v-50.84Z"/>
    <path class="cls-1" d="M1014.94,144.51c0-6.08,1.57-10.85,4.7-14.31,3.13-3.46,7.36-5.2,12.68-5.2s9.57,1.72,12.61,5.16c3.04,3.44,4.56,8.18,4.56,14.21s-1.54,10.79-4.63,14.28-7.31,5.23-12.68,5.23-9.7-1.72-12.71-5.16c-3.02-3.44-4.52-8.18-4.52-14.21ZM1019.35,144.44c0,4.89,1.06,8.77,3.17,11.64,2.11,2.87,5.33,4.31,9.65,4.31s7.62-1.45,9.76-4.34c2.14-2.89,3.21-6.79,3.21-11.68s-1.07-8.7-3.21-11.57c-2.14-2.87-5.39-4.31-9.76-4.31s-7.54,1.44-9.65,4.31c-2.11,2.87-3.17,6.75-3.17,11.64Z"/>
    <path class="cls-1" d="M1057.81,150.49v-24.35h4.13v23.57c0,3.66.71,6.33,2.14,8.01,1.42,1.69,3.61,2.53,6.55,2.53,3.37,0,6.36-1.23,8.97-3.7,1.23-1.09,2.1-2.2,2.6-3.31.5-1.12.75-2.76.75-4.95v-22.15h4.13v36.6h-4.06v-6.12c-3.42,4.84-7.86,7.26-13.32,7.26-7.93,0-11.89-4.46-11.89-13.39Z"/>
    <path class="cls-1" d="M1097.04,126.14h4.13v5.91c1.8-2.42,3.86-4.2,6.16-5.34,2.3-1.14,4.78-1.71,7.44-1.71,4.08,0,7.14,1.13,9.19,3.38s3.06,5.57,3.06,9.93v24.43h-4.13v-23.64c0-3.66-.75-6.31-2.24-7.98-1.5-1.66-3.74-2.49-6.73-2.49-1.76,0-3.43.3-5.02.89-1.59.59-3.03,1.51-4.31,2.74-1.24,1.14-2.11,2.27-2.63,3.38-.52,1.12-.78,2.74-.78,4.88v22.22h-4.13v-36.6Z"/>
    <path class="cls-1" d="M1135.36,144.51c0-6.08,1.46-10.85,4.38-14.31,2.92-3.46,6.89-5.2,11.93-5.2,2.56,0,4.95.56,7.16,1.67,2.21,1.12,4,2.91,5.38,5.38v-20.15h4.13v50.84h-4.06v-6.55c-1.43,2.47-3.24,4.37-5.45,5.7-2.21,1.33-4.81,1.99-7.8,1.99-3.42,0-6.29-.82-8.62-2.46s-4.08-3.92-5.27-6.84c-1.19-2.92-1.78-6.28-1.78-10.08ZM1139.7,144.44c0,3.66.52,6.66,1.57,9.01,1.04,2.35,2.48,4.08,4.31,5.2,1.83,1.12,3.86,1.67,6.09,1.67,3.89,0,6.98-1.25,9.26-3.74,2.28-2.49,3.42-5.97,3.42-10.43v-3.13c0-4.84-1.08-8.47-3.24-10.9s-5.14-3.63-8.94-3.63-6.76,1.31-9.04,3.92c-2.28,2.61-3.42,6.62-3.42,12.03Z"/>
    <path class="cls-1" d="M1176.09,152.56c0-3.04.78-5.42,2.35-7.16,1.57-1.73,3.74-2.98,6.52-3.74,2.78-.76,5.97-1.21,9.58-1.35l7.33-.29v-1.57c0-3.66-.75-6.25-2.24-7.8-1.5-1.54-4-2.31-7.51-2.31-3.18,0-5.59.53-7.23,1.6-1.64,1.07-2.72,2.65-3.24,4.74l-3.78-.43c.66-3.18,2.2-5.52,4.59-7.01,2.4-1.5,5.66-2.24,9.79-2.24,4.94,0,8.46,1.14,10.58,3.42,2.11,2.28,3.17,5.67,3.17,10.18v24.14h-4.06v-5.77c-1.38,1.95-3.15,3.54-5.3,4.77-2.16,1.23-4.76,1.85-7.8,1.85-3.89,0-6.99-.94-9.29-2.81-2.3-1.88-3.45-4.62-3.45-8.23ZM1180.36,152.41c0,2.42.74,4.31,2.21,5.66,1.47,1.35,3.73,2.03,6.76,2.03,3.56,0,6.54-.93,8.94-2.78,2.4-1.85,3.6-4.51,3.6-7.98v-6.2l-6.98.28c-3.66.14-6.55.55-8.69,1.21-2.14.67-3.64,1.64-4.52,2.92-.88,1.28-1.32,2.9-1.32,4.84Z"/>
    <path class="cls-1" d="M1217.82,151.63v-22.15h-5.7v-3.35h5.7v-10.11h4.13v10.11h10.89v3.35h-10.89v23.21c0,2.33.48,4.13,1.46,5.41.97,1.28,2.48,1.92,4.52,1.92,1,0,1.9-.08,2.71-.25.81-.17,1.57-.39,2.28-.68l.79,3.28c-.9.33-1.87.61-2.88.82-1.02.21-2.17.32-3.45.32-3.66,0-6.16-1.04-7.51-3.13s-2.03-5.01-2.03-8.76Z"/>
    <path class="cls-1" d="M1239.54,111.9h4.27v6.91h-4.27v-6.91ZM1239.61,126.14h4.13v36.6h-4.13v-36.6Z"/>
    <path class="cls-1" d="M1252.43,144.51c0-6.08,1.57-10.85,4.7-14.31,3.13-3.46,7.36-5.2,12.68-5.2s9.56,1.72,12.6,5.16c3.04,3.44,4.56,8.18,4.56,14.21s-1.54,10.79-4.63,14.28c-3.09,3.49-7.31,5.23-12.68,5.23s-9.7-1.72-12.71-5.16c-3.02-3.44-4.52-8.18-4.52-14.21ZM1256.84,144.44c0,4.89,1.05,8.77,3.17,11.64,2.11,2.87,5.33,4.31,9.65,4.31s7.62-1.45,9.76-4.34c2.14-2.89,3.2-6.79,3.2-11.68s-1.07-8.7-3.2-11.57c-2.14-2.87-5.39-4.31-9.76-4.31s-7.54,1.44-9.65,4.31c-2.11,2.87-3.17,6.75-3.17,11.64Z"/>
    <path class="cls-1" d="M1295.51,126.14h4.13v5.91c1.8-2.42,3.86-4.2,6.16-5.34s4.78-1.71,7.44-1.71c4.08,0,7.14,1.13,9.19,3.38,2.04,2.25,3.06,5.57,3.06,9.93v24.43h-4.13v-23.64c0-3.66-.75-6.31-2.24-7.98-1.5-1.66-3.74-2.49-6.73-2.49-1.76,0-3.43.3-5.02.89-1.59.59-3.03,1.51-4.31,2.74-1.23,1.14-2.11,2.27-2.63,3.38-.52,1.12-.78,2.74-.78,4.88v22.22h-4.13v-36.6Z"/>
    <path class="cls-1" d="M1352.05,111.9h5.41l18.37,45.65,18.51-45.65h5.2v50.84h-4.06v-43.65l-17.95,43.65h-3.63l-17.8-43.72v43.72h-4.06v-50.84Z"/>
    <path class="cls-1" d="M1408.95,144.51c0-6.08,1.57-10.85,4.7-14.31,3.13-3.46,7.36-5.2,12.68-5.2s9.57,1.72,12.61,5.16c3.04,3.44,4.56,8.18,4.56,14.21s-1.54,10.79-4.63,14.28-7.31,5.23-12.68,5.23-9.7-1.72-12.71-5.16c-3.02-3.44-4.52-8.18-4.52-14.21ZM1413.36,144.44c0,4.89,1.06,8.77,3.17,11.64,2.11,2.87,5.33,4.31,9.65,4.31s7.62-1.45,9.76-4.34c2.14-2.89,3.21-6.79,3.21-11.68s-1.07-8.7-3.21-11.57c-2.14-2.87-5.39-4.31-9.76-4.31s-7.54,1.44-9.65,4.31c-2.11,2.87-3.17,6.75-3.17,11.64Z"/>
    <path class="cls-1" d="M1450.61,144.51c0-6.08,1.46-10.85,4.38-14.31,2.92-3.46,6.89-5.2,11.93-5.2,2.56,0,4.95.56,7.16,1.67,2.21,1.12,4,2.91,5.38,5.38v-20.15h4.13v50.84h-4.06v-6.55c-1.43,2.47-3.24,4.37-5.45,5.7-2.21,1.33-4.81,1.99-7.8,1.99-3.42,0-6.29-.82-8.62-2.46s-4.08-3.92-5.27-6.84c-1.19-2.92-1.78-6.28-1.78-10.08ZM1454.95,144.44c0,3.66.52,6.66,1.57,9.01,1.04,2.35,2.48,4.08,4.31,5.2,1.83,1.12,3.86,1.67,6.09,1.67,3.89,0,6.98-1.25,9.26-3.74,2.28-2.49,3.42-5.97,3.42-10.43v-3.13c0-4.84-1.08-8.47-3.24-10.9s-5.14-3.63-8.94-3.63-6.76,1.31-9.04,3.92c-2.28,2.61-3.42,6.62-3.42,12.03Z"/>
    <path class="cls-1" d="M1492.12,144.72c0-6.31,1.54-11.18,4.63-14.6,3.08-3.42,7.17-5.13,12.25-5.13s9.17,1.64,11.71,4.91c2.54,3.28,3.81,7.69,3.81,13.25v2.28h-28.2c.14,4.8,1.29,8.5,3.45,11.11,2.16,2.61,5.23,3.92,9.22,3.92,3.13,0,5.58-.64,7.33-1.92,1.76-1.28,2.92-3.09,3.49-5.41h3.99c-.62,3.32-2.17,5.95-4.66,7.87-2.49,1.92-5.88,2.88-10.15,2.88-5.41,0-9.58-1.68-12.5-5.06-2.92-3.37-4.38-8.07-4.38-14.1ZM1499.78,132.19c-1.97,2.61-3.1,5.96-3.38,10.04h24c-.14-4.51-1.09-7.96-2.85-10.36-1.76-2.4-4.63-3.6-8.62-3.6s-7.18,1.31-9.15,3.92Z"/>
    <path class="cls-1" d="M1533.07,111.9h4.13v50.84h-4.13v-50.84Z"/>
    <path class="cls-1" d="M1571.02,153.2c0-1.95-.56-3.48-1.67-4.59-1.12-1.11-3.36-1.96-6.73-2.53l-4.13-.64c-4.08-.66-7.12-1.76-9.12-3.28-1.99-1.52-2.99-3.82-2.99-6.91s1.27-5.74,3.81-7.55c2.54-1.8,5.88-2.71,10-2.71,3.13,0,5.65.38,7.55,1.14,1.9.76,3.37,1.85,4.42,3.28,1.04,1.42,1.83,3.11,2.35,5.06l-3.78.64c-.76-2.33-1.88-4.04-3.35-5.13-1.47-1.09-3.82-1.64-7.05-1.64-3.56,0-6.11.62-7.65,1.85-1.54,1.24-2.31,2.85-2.31,4.84,0,1.85.58,3.29,1.74,4.31,1.16,1.02,3.29,1.79,6.37,2.31l4.63.71c4.46.76,7.61,1.95,9.44,3.56,1.83,1.61,2.74,4.04,2.74,7.26s-1.2,5.82-3.6,7.76c-2.4,1.95-5.95,2.92-10.65,2.92-4.42,0-8.05-.89-10.9-2.67-2.85-1.78-4.44-4.66-4.77-8.65h3.99c.43,2.75,1.61,4.76,3.56,6.02,1.95,1.26,4.63,1.89,8.05,1.89s6.06-.63,7.66-1.89c1.59-1.26,2.38-3.05,2.38-5.38Z"/>
  </g>
  <g>
    <path class="cls-1" d="M625.36,202.29h5.93l7.46,20.78,7.57-20.78h5.78v26.64h-4.55v-19.1l-7.01,19.1h-3.77l-6.9-18.95v18.95h-4.52v-26.64Z"/>
    <path class="cls-1" d="M656.51,219.26c0-2.14.4-3.98,1.19-5.52.8-1.54,1.92-2.73,3.38-3.56,1.46-.83,3.18-1.25,5.17-1.25,3.03,0,5.4.9,7.09,2.71s2.54,4.3,2.54,7.48-.86,5.78-2.59,7.63c-1.73,1.85-4.11,2.78-7.15,2.78s-5.43-.9-7.11-2.71c-1.68-1.8-2.52-4.32-2.52-7.56ZM661.36,219.19c0,1.96.38,3.54,1.14,4.74.76,1.19,1.98,1.79,3.68,1.79s2.92-.6,3.69-1.79c.77-1.19,1.16-2.77,1.16-4.74s-.39-3.53-1.16-4.7c-.77-1.17-2-1.75-3.69-1.75s-2.89.58-3.66,1.75c-.77,1.17-1.16,2.74-1.16,4.7Z"/>
    <path class="cls-1" d="M679.87,202.29h4.7v9.74c.97-1.14,1.98-1.95,3.02-2.41,1.04-.46,2.13-.69,3.25-.69,2.14,0,3.76.6,4.85,1.81,1.09,1.21,1.64,2.94,1.64,5.21v12.98h-4.7v-12.09c0-1.44-.27-2.47-.8-3.08-.54-.61-1.35-.91-2.45-.91-.62,0-1.22.11-1.81.33-.59.22-1.11.57-1.59,1.04-.47.42-.83.88-1.06,1.36-.24.49-.36,1.13-.36,1.92v11.42h-4.7v-26.64Z"/>
    <path class="cls-1" d="M700.61,223.55c0-1.27.27-2.33.8-3.17.54-.84,1.26-1.51,2.18-2,.92-.48,1.97-.83,3.15-1.04,1.18-.21,2.42-.34,3.71-.39l2.98-.11v-.71c0-1.34-.29-2.32-.86-2.93s-1.49-.91-2.76-.91-2.16.22-2.76.65c-.6.44-.99,1.05-1.19,1.85l-4.22-.37c.35-1.89,1.22-3.28,2.61-4.16,1.39-.88,3.29-1.33,5.71-1.33,2.88,0,4.94.65,6.16,1.96s1.83,3.19,1.83,5.65v12.39h-4.37v-2.39c-.75.85-1.63,1.54-2.65,2.07s-2.25.8-3.69.8c-1.96,0-3.56-.5-4.79-1.51s-1.85-2.46-1.85-4.35ZM705.16,223.33c0,.8.25,1.44.75,1.92.5.49,1.31.73,2.43.73,1.54,0,2.78-.4,3.71-1.19.93-.79,1.4-1.91,1.4-3.36v-1.64l-2.76.11c-2.11.07-3.56.4-4.35.97-.78.57-1.18,1.39-1.18,2.46Z"/>
    <path class="cls-1" d="M722.48,209.53h4.59v2.65c.82-1.09,1.73-1.91,2.72-2.44.99-.53,2.03-.8,3.1-.8,1.34,0,2.46.29,3.36.88.89.58,1.57,1.41,2.01,2.48,1.67-2.24,3.78-3.36,6.34-3.36,1.91,0,3.39.54,4.44,1.62s1.57,2.77,1.57,5.06v13.32h-4.7v-12.5c0-1.37-.24-2.31-.71-2.82s-1.16-.76-2.05-.76c-.47,0-.97.09-1.49.26-.52.17-1.02.47-1.49.9-.37.35-.68.76-.91,1.23s-.35,1.01-.35,1.6v12.09h-4.7v-12.46c0-1.32-.24-2.25-.71-2.8s-1.14-.82-2.02-.82c-1.07,0-2.06.44-2.98,1.31-.32.32-.62.73-.89,1.23-.28.5-.41,1.14-.41,1.94v11.6h-4.7v-19.4Z"/>
    <path class="cls-1" d="M754.45,219.38c0-2.24.4-4.14,1.2-5.69.79-1.55,1.9-2.74,3.32-3.54,1.42-.81,3.06-1.21,4.92-1.21,2.02,0,3.68.41,5,1.21,1.32.81,2.3,1.93,2.95,3.38.65,1.44.97,3.12.97,5.04v1.75h-13.73c.1,1.87.55,3.28,1.34,4.25.79.97,1.95,1.46,3.47,1.46,1.32,0,2.3-.25,2.95-.75.65-.5,1.08-1.19,1.3-2.09h4.4c-.32,1.99-1.19,3.54-2.61,4.66s-3.42,1.68-6.01,1.68c-3.04,0-5.37-.89-7.02-2.67-1.64-1.78-2.46-4.27-2.46-7.48ZM767.25,213.63c-.62-.87-1.74-1.31-3.36-1.31s-2.77.47-3.47,1.4c-.7.93-1.13,2.16-1.31,3.68h9.18c-.08-1.64-.42-2.9-1.04-3.77Z"/>
    <path class="cls-1" d="M776.13,219.38c0-3.23.75-5.78,2.26-7.65,1.5-1.87,3.56-2.8,6.17-2.8,1.02,0,2.02.21,3,.62s1.86,1.11,2.63,2.11v-9.37h4.7v26.64h-4.55v-2.54c-.77,1.02-1.65,1.8-2.65,2.33-1,.53-2.16.8-3.51.8-1.79,0-3.28-.44-4.48-1.31-1.2-.87-2.09-2.07-2.69-3.6-.6-1.53-.89-3.28-.89-5.24ZM780.94,219.23c0,1.59.21,2.86.63,3.81.42.95.98,1.62,1.66,2.03.68.41,1.41.62,2.18.62,1.52,0,2.7-.52,3.54-1.55.85-1.03,1.27-2.48,1.27-4.35v-1.04c0-2.06-.42-3.59-1.25-4.57-.83-.98-1.96-1.47-3.38-1.47s-2.49.5-3.36,1.51c-.87,1.01-1.31,2.68-1.31,5.02Z"/>
    <path class="cls-1" d="M812.28,228.93h-4.59v-26.64h4.7v9.51c.75-.92,1.62-1.63,2.61-2.13.99-.5,2.13-.75,3.39-.75,2.69,0,4.7.92,6.04,2.76,1.34,1.84,2.01,4.29,2.01,7.35,0,2.14-.34,4-1.03,5.58-.68,1.58-1.65,2.79-2.89,3.64-1.24.85-2.74,1.27-4.48,1.27-1.09,0-2.14-.22-3.15-.67s-1.88-1.18-2.63-2.2v2.28ZM812.35,218.59v1.08c0,2.09.42,3.62,1.27,4.59.85.97,1.98,1.46,3.39,1.46s2.48-.5,3.34-1.51c.86-1.01,1.29-2.69,1.29-5.05,0-1.59-.21-2.85-.62-3.79-.41-.93-.95-1.6-1.62-2.02-.67-.41-1.41-.62-2.2-.62-1.44,0-2.61.51-3.51,1.53-.89,1.02-1.34,2.46-1.34,4.33Z"/>
    <path class="cls-1" d="M830.49,202.21h4.74v4.22h-4.74v-4.22ZM830.53,209.53h4.7v19.4h-4.7v-19.4Z"/>
    <path class="cls-1" d="M839.89,209.53h4.59v2.69c.97-1.22,1.99-2.07,3.06-2.56,1.07-.48,2.18-.73,3.32-.73,2.14,0,3.76.6,4.85,1.81,1.09,1.21,1.64,2.94,1.64,5.21v12.98h-4.7v-12.09c0-1.44-.27-2.47-.8-3.08-.54-.61-1.35-.91-2.45-.91-.62,0-1.22.11-1.81.33-.59.22-1.11.57-1.59,1.04-.47.42-.83.88-1.06,1.36-.24.49-.36,1.13-.36,1.92v11.42h-4.7v-19.4Z"/>
    <path class="cls-1" d="M868.92,225.23l14.03-18.77h-13.77v-4.18h19.59v3.73l-13.95,18.69h14.55l-.6,4.22h-19.85v-3.69Z"/>
    <path class="cls-1" d="M891.45,223.55c0-1.27.27-2.33.8-3.17.53-.84,1.26-1.51,2.18-2,.92-.48,1.97-.83,3.15-1.04,1.18-.21,2.42-.34,3.71-.39l2.98-.11v-.71c0-1.34-.29-2.32-.86-2.93s-1.49-.91-2.76-.91-2.16.22-2.76.65c-.6.44-1,1.05-1.2,1.85l-4.21-.37c.35-1.89,1.22-3.28,2.61-4.16s3.29-1.33,5.71-1.33c2.88,0,4.94.65,6.16,1.96s1.83,3.19,1.83,5.65v12.39h-4.37v-2.39c-.75.85-1.63,1.54-2.65,2.07s-2.25.8-3.69.8c-1.96,0-3.56-.5-4.79-1.51-1.23-1.01-1.85-2.46-1.85-4.35ZM896,223.33c0,.8.25,1.44.75,1.92.5.49,1.3.73,2.42.73,1.54,0,2.78-.4,3.71-1.19.93-.79,1.4-1.91,1.4-3.36v-1.64l-2.76.11c-2.12.07-3.56.4-4.35.97-.78.57-1.18,1.39-1.18,2.46Z"/>
    <path class="cls-1" d="M913.31,232.4c.82.25,1.54.37,2.16.37.75,0,1.33-.23,1.75-.69.42-.46.85-1.26,1.27-2.41l.63-1.75-8.1-18.39h5.19l5.15,13.51,4.66-13.51h5l-8.25,20.56c-.6,1.49-1.17,2.72-1.73,3.67-.56.96-1.21,1.67-1.96,2.13s-1.7.69-2.87.69c-1.27,0-2.5-.2-3.69-.6l.78-3.58Z"/>
    <path class="cls-1" d="M932.38,219.38c0-2.24.4-4.14,1.19-5.69.8-1.55,1.9-2.74,3.32-3.54,1.42-.81,3.06-1.21,4.93-1.21,2.01,0,3.68.41,5,1.21,1.32.81,2.3,1.93,2.95,3.38.65,1.44.97,3.12.97,5.04v1.75h-13.73c.1,1.87.55,3.28,1.34,4.25.8.97,1.95,1.46,3.47,1.46,1.32,0,2.3-.25,2.95-.75.65-.5,1.08-1.19,1.31-2.09h4.4c-.32,1.99-1.2,3.54-2.61,4.66-1.42,1.12-3.42,1.68-6.01,1.68-3.04,0-5.37-.89-7.01-2.67-1.64-1.78-2.46-4.27-2.46-7.48ZM945.18,213.63c-.62-.87-1.74-1.31-3.36-1.31s-2.77.47-3.47,1.4c-.7.93-1.13,2.16-1.3,3.68h9.18c-.07-1.64-.42-2.9-1.04-3.77Z"/>
    <path class="cls-1" d="M954.06,219.38c0-3.23.75-5.78,2.26-7.65,1.5-1.87,3.56-2.8,6.18-2.8,1.02,0,2.02.21,3,.62s1.86,1.11,2.63,2.11v-9.37h4.7v26.64h-4.55v-2.54c-.77,1.02-1.66,1.8-2.65,2.33-.99.53-2.16.8-3.51.8-1.79,0-3.28-.44-4.48-1.31-1.19-.87-2.09-2.07-2.69-3.6-.6-1.53-.9-3.28-.9-5.24ZM958.87,219.23c0,1.59.21,2.86.63,3.81.42.95.98,1.62,1.66,2.03.69.41,1.41.62,2.18.62,1.52,0,2.7-.52,3.54-1.55.85-1.03,1.27-2.48,1.27-4.35v-1.04c0-2.06-.42-3.59-1.25-4.57-.83-.98-1.96-1.47-3.38-1.47s-2.49.5-3.36,1.51c-.87,1.01-1.3,2.68-1.3,5.02Z"/>
    <path class="cls-1" d="M985.77,218.07v-15.78h5v16.01c0,2.34.44,4.09,1.32,5.26.88,1.17,2.31,1.75,4.27,1.75s3.48-.58,4.33-1.75c.84-1.17,1.27-2.92,1.27-5.26v-16.01h4.96v15.89c0,3.93-.92,6.82-2.76,8.66-1.84,1.84-4.45,2.76-7.83,2.76s-6.02-.93-7.84-2.78-2.72-4.77-2.72-8.75Z"/>
    <path class="cls-1" d="M1011.7,209.53h4.59v2.69c.97-1.22,1.99-2.07,3.06-2.56,1.07-.48,2.18-.73,3.32-.73,2.14,0,3.76.6,4.85,1.81,1.09,1.21,1.64,2.94,1.64,5.21v12.98h-4.7v-12.09c0-1.44-.27-2.47-.8-3.08-.54-.61-1.35-.91-2.44-.91-.62,0-1.23.11-1.81.33-.58.22-1.11.57-1.59,1.04-.47.42-.83.88-1.06,1.36s-.35,1.13-.35,1.92v11.42h-4.7v-19.4Z"/>
    <path class="cls-1" d="M1033.6,202.21h4.74v4.22h-4.74v-4.22ZM1033.64,209.53h4.7v19.4h-4.7v-19.4Z"/>
    <path class="cls-1" d="M1050.95,224.15l4.89-14.63h4.96l-7.43,19.4h-5l-7.39-19.4h5.19l4.78,14.63Z"/>
    <path class="cls-1" d="M1062.11,219.38c0-2.24.4-4.14,1.2-5.69.79-1.55,1.9-2.74,3.32-3.54,1.42-.81,3.06-1.21,4.92-1.21,2.02,0,3.68.41,5,1.21,1.32.81,2.3,1.93,2.95,3.38.65,1.44.97,3.12.97,5.04v1.75h-13.73c.1,1.87.55,3.28,1.34,4.25.79.97,1.95,1.46,3.47,1.46,1.32,0,2.3-.25,2.95-.75.65-.5,1.08-1.19,1.3-2.09h4.4c-.32,1.99-1.19,3.54-2.61,4.66s-3.42,1.68-6.01,1.68c-3.04,0-5.37-.89-7.02-2.67-1.64-1.78-2.46-4.27-2.46-7.48ZM1074.9,213.63c-.62-.87-1.74-1.31-3.36-1.31s-2.77.47-3.47,1.4c-.7.93-1.13,2.16-1.31,3.68h9.18c-.08-1.64-.42-2.9-1.04-3.77Z"/>
    <path class="cls-1" d="M1084.42,209.53h4.59v2.72c1.44-2.04,3.3-3.06,5.56-3.06.35,0,.68.01.99.04.31.02.59.06.84.11l-.56,4.14c-.55-.15-1.13-.22-1.75-.22s-1.21.09-1.77.28c-.56.19-1.09.49-1.59.91-.5.4-.89.88-1.18,1.46-.29.57-.43,1.26-.43,2.05v10.97h-4.7v-19.4Z"/>
    <path class="cls-1" d="M1110.65,223.59c0-.65-.19-1.19-.56-1.64s-1.14-.76-2.31-.93l-2.31-.37c-2.34-.37-4.09-.99-5.24-1.87-1.16-.87-1.74-2.2-1.74-3.99s.75-3.28,2.26-4.31c1.5-1.03,3.46-1.55,5.88-1.55,1.84,0,3.33.23,4.46.69,1.13.46,2,1.1,2.61,1.92.61.82,1.03,1.78,1.25,2.87l-4.33.56c-.28-.89-.69-1.57-1.23-2.03-.55-.46-1.46-.69-2.72-.69-1.39,0-2.36.24-2.91.71s-.82,1.02-.82,1.64.21,1.16.62,1.55c.41.39,1.22.68,2.44.88l2.57.45c2.44.45,4.17,1.13,5.19,2.03,1.02.91,1.53,2.26,1.53,4.05s-.69,3.23-2.07,4.33c-1.38,1.09-3.44,1.64-6.17,1.64-2.56,0-4.66-.5-6.31-1.51-1.64-1.01-2.54-2.66-2.69-4.94h4.48c.2,1.09.67,1.87,1.4,2.31.73.45,1.75.67,3.04.67s2.26-.22,2.83-.67.86-1.04.86-1.79Z"/>
    <path class="cls-1" d="M1118.93,202.21h4.74v4.22h-4.74v-4.22ZM1118.97,209.53h4.7v19.4h-4.7v-19.4Z"/>
    <path class="cls-1" d="M1129.67,222.21v-8.99h-3.06v-3.69h3.06v-5.22h4.7v5.22h4.81v3.69h-4.81v9.48c0,.87.2,1.55.6,2.05.4.5,1.01.75,1.83.75.47,0,.89-.04,1.27-.11.38-.07.72-.16,1.04-.26l.71,3.51c-.62.2-1.26.36-1.92.48-.66.12-1.41.19-2.26.19-1.54,0-2.75-.28-3.62-.84-.87-.56-1.48-1.37-1.83-2.43-.35-1.06-.52-2.33-.52-3.82Z"/>
    <path class="cls-1" d="M1143.37,232.4c.82.25,1.54.37,2.16.37.75,0,1.33-.23,1.75-.69.42-.46.84-1.26,1.27-2.41l.63-1.75-8.1-18.39h5.19l5.15,13.51,4.66-13.51h5l-8.25,20.56c-.6,1.49-1.18,2.72-1.73,3.67-.56.96-1.21,1.67-1.96,2.13s-1.71.69-2.87.69c-1.27,0-2.5-.2-3.69-.6l.78-3.58Z"/>
    <path class="cls-1" d="M1171.24,219.26c0-2.14.4-3.98,1.2-5.52.79-1.54,1.92-2.73,3.38-3.56,1.46-.83,3.18-1.25,5.17-1.25,3.04,0,5.4.9,7.09,2.71s2.54,4.3,2.54,7.48-.87,5.78-2.59,7.63c-1.73,1.85-4.11,2.78-7.14,2.78s-5.43-.9-7.11-2.71c-1.68-1.8-2.52-4.32-2.52-7.56ZM1176.09,219.19c0,1.96.38,3.54,1.14,4.74.76,1.19,1.98,1.79,3.68,1.79s2.92-.6,3.69-1.79,1.16-2.77,1.16-4.74-.38-3.53-1.16-4.7c-.77-1.17-2-1.75-3.69-1.75s-2.88.58-3.66,1.75c-.77,1.17-1.16,2.74-1.16,4.7Z"/>
    <path class="cls-1" d="M1195.97,213.55h-3.1v-3.69h3.1v-1.27c0-2.21.62-3.87,1.85-4.96,1.23-1.09,2.79-1.64,4.68-1.64,1.27,0,2.58.19,3.92.56l-.67,3.43c-.4-.12-.78-.21-1.14-.24-.36-.04-.71-.05-1.06-.05-.85,0-1.54.21-2.07.63s-.8,1.16-.8,2.2v1.34h4.63v3.69h-4.63v15.37h-4.7v-15.37Z"/>
    <path class="cls-1" d="M1219.67,228.93h-5.04l9.85-26.64h5.71l9.78,26.64h-5.19l-2.31-6.46h-10.52l-2.28,6.46ZM1227.2,206.91l-3.96,11.46h7.95l-3.99-11.46Z"/>
    <path class="cls-1" d="M1242.8,209.53h4.59v2.72c1.44-2.04,3.29-3.06,5.56-3.06.35,0,.68.01.99.04s.59.06.84.11l-.56,4.14c-.55-.15-1.13-.22-1.75-.22s-1.21.09-1.77.28c-.56.19-1.09.49-1.58.91-.5.4-.89.88-1.18,1.46-.29.57-.43,1.26-.43,2.05v10.97h-4.7v-19.4Z"/>
    <path class="cls-1" d="M1259.62,222.21v-8.99h-3.06v-3.69h3.06v-5.22h4.7v5.22h4.81v3.69h-4.81v9.48c0,.87.2,1.55.6,2.05.4.5,1.01.75,1.83.75.47,0,.89-.04,1.27-.11.38-.07.72-.16,1.04-.26l.71,3.51c-.62.2-1.26.36-1.92.48-.66.12-1.41.19-2.26.19-1.54,0-2.75-.28-3.62-.84-.87-.56-1.48-1.37-1.83-2.43-.35-1.06-.52-2.33-.52-3.82Z"/>
    <path class="cls-1" d="M1272.5,202.21h4.74v4.22h-4.74v-4.22ZM1272.53,209.53h4.7v19.4h-4.7v-19.4Z"/>
    <path class="cls-1" d="M1283.28,213.55h-3.1v-3.69h3.1v-1.27c0-2.21.62-3.87,1.85-4.96,1.23-1.09,2.79-1.64,4.68-1.64,1.27,0,2.58.19,3.92.56l-.67,3.43c-.4-.12-.78-.21-1.14-.24-.36-.04-.71-.05-1.06-.05-.85,0-1.54.21-2.07.63s-.8,1.16-.8,2.2v1.34h4.63v3.69h-4.63v15.37h-4.7v-15.37ZM1295.74,202.21h4.74v4.22h-4.74v-4.22ZM1295.78,209.53h4.7v19.4h-4.7v-19.4Z"/>
    <path class="cls-1" d="M1304.51,219.3c0-2.11.39-3.95,1.16-5.5.77-1.55,1.87-2.75,3.28-3.6s3.11-1.27,5.07-1.27c2.44,0,4.35.6,5.73,1.79s2.23,2.86,2.55,5l-4.51.6c-.2-1.09-.58-1.96-1.14-2.61-.56-.65-1.45-.97-2.67-.97-1.67,0-2.86.6-3.56,1.81-.71,1.21-1.06,2.75-1.06,4.65s.35,3.45,1.04,4.68c.7,1.23,1.89,1.85,3.58,1.85,1.24,0,2.18-.34,2.82-1.01s1.04-1.58,1.21-2.72h4.55c-.3,2.36-1.18,4.21-2.63,5.54s-3.47,2-6.06,2c-3.01,0-5.32-.91-6.94-2.74-1.62-1.83-2.43-4.32-2.43-7.48Z"/>
    <path class="cls-1" d="M1326.26,202.21h4.74v4.22h-4.74v-4.22ZM1326.3,209.53h4.7v19.4h-4.7v-19.4Z"/>
    <path class="cls-1" d="M1334.5,223.55c0-1.27.27-2.33.8-3.17.53-.84,1.26-1.51,2.18-2,.92-.48,1.97-.83,3.15-1.04,1.18-.21,2.42-.34,3.71-.39l2.98-.11v-.71c0-1.34-.29-2.32-.86-2.93s-1.49-.91-2.76-.91-2.16.22-2.76.65c-.6.44-1,1.05-1.2,1.85l-4.21-.37c.35-1.89,1.22-3.28,2.61-4.16s3.29-1.33,5.71-1.33c2.88,0,4.94.65,6.16,1.96s1.83,3.19,1.83,5.65v12.39h-4.37v-2.39c-.75.85-1.63,1.54-2.65,2.07s-2.25.8-3.69.8c-1.96,0-3.56-.5-4.79-1.51-1.23-1.01-1.85-2.46-1.85-4.35ZM1339.05,223.33c0,.8.25,1.44.75,1.92.5.49,1.3.73,2.42.73,1.54,0,2.78-.4,3.71-1.19.93-.79,1.4-1.91,1.4-3.36v-1.64l-2.76.11c-2.12.07-3.56.4-4.35.97-.78.57-1.18,1.39-1.18,2.46Z"/>
    <path class="cls-1" d="M1356.4,202.29h4.7v26.64h-4.7v-26.64Z"/>
    <path class="cls-1" d="M1374.35,202.29h5v26.64h-5v-26.64Z"/>
    <path class="cls-1" d="M1384.39,209.53h4.59v2.69c.97-1.22,1.99-2.07,3.06-2.56,1.07-.48,2.18-.73,3.32-.73,2.14,0,3.76.6,4.85,1.81,1.09,1.21,1.64,2.94,1.64,5.21v12.98h-4.7v-12.09c0-1.44-.27-2.47-.8-3.08-.54-.61-1.35-.91-2.44-.91-.62,0-1.23.11-1.81.33-.58.22-1.11.57-1.59,1.04-.47.42-.83.88-1.06,1.36s-.35,1.13-.35,1.92v11.42h-4.7v-19.4Z"/>
    <path class="cls-1" d="M1407.63,222.21v-8.99h-3.06v-3.69h3.06v-5.22h4.7v5.22h4.81v3.69h-4.81v9.48c0,.87.2,1.55.6,2.05.4.5,1.01.75,1.83.75.47,0,.89-.04,1.27-.11.38-.07.72-.16,1.04-.26l.71,3.51c-.62.2-1.26.36-1.92.48-.66.12-1.41.19-2.26.19-1.54,0-2.75-.28-3.62-.84-.87-.56-1.48-1.37-1.83-2.43-.35-1.06-.52-2.33-.52-3.82Z"/>
    <path class="cls-1" d="M1419.87,219.38c0-2.24.4-4.14,1.19-5.69.8-1.55,1.9-2.74,3.32-3.54,1.42-.81,3.06-1.21,4.93-1.21,2.01,0,3.68.41,5,1.21,1.32.81,2.3,1.93,2.95,3.38.65,1.44.97,3.12.97,5.04v1.75h-13.73c.1,1.87.55,3.28,1.34,4.25.8.97,1.95,1.46,3.47,1.46,1.32,0,2.3-.25,2.95-.75.65-.5,1.08-1.19,1.31-2.09h4.4c-.32,1.99-1.2,3.54-2.61,4.66-1.42,1.12-3.42,1.68-6.01,1.68-3.04,0-5.37-.89-7.01-2.67-1.64-1.78-2.46-4.27-2.46-7.48ZM1432.67,213.63c-.62-.87-1.74-1.31-3.36-1.31s-2.77.47-3.47,1.4c-.7.93-1.13,2.16-1.3,3.68h9.18c-.07-1.64-.42-2.9-1.04-3.77Z"/>
    <path class="cls-1" d="M1442.22,202.29h4.7v26.64h-4.7v-26.64Z"/>
    <path class="cls-1" d="M1451.62,202.29h4.7v26.64h-4.7v-26.64Z"/>
    <path class="cls-1" d="M1460.98,202.21h4.74v4.22h-4.74v-4.22ZM1461.02,209.53h4.7v19.4h-4.7v-19.4Z"/>
    <path class="cls-1" d="M1483.82,227.25v-1.9c-.72.95-1.58,1.68-2.57,2.2s-2.15.78-3.47.78c-1.79,0-3.28-.41-4.48-1.23-1.19-.82-2.08-1.96-2.67-3.41s-.88-3.12-.88-4.98c0-1.96.34-3.68,1.01-5.15.67-1.47,1.63-2.6,2.89-3.41,1.26-.81,2.74-1.21,4.46-1.21,1.1,0,2.14.21,3.13.62s1.89,1.15,2.69,2.22v-2.24h4.59v16.57c0,2.19-.28,4.07-.84,5.63-.56,1.57-1.5,2.77-2.82,3.6-1.32.83-3.15,1.25-5.48,1.25-2.69,0-4.78-.5-6.29-1.51-1.51-1.01-2.37-2.61-2.59-4.79h4.55c.2,1,.63,1.71,1.29,2.15.66.43,1.66.65,3,.65,1.69,0,2.86-.48,3.51-1.46.65-.97.97-2.42.97-4.37ZM1482.74,214.26c-.75-1.04-1.92-1.57-3.51-1.57-1.34,0-2.46.47-3.34,1.42s-1.32,2.45-1.32,4.51c0,1.42.21,2.56.63,3.41.42.86.98,1.48,1.66,1.87.69.39,1.42.58,2.22.58,1.62,0,2.82-.52,3.6-1.57.78-1.04,1.17-2.36,1.17-3.96v-.6c0-1.69-.37-3.06-1.12-4.11Z"/>
    <path class="cls-1" d="M1492.47,219.38c0-2.24.4-4.14,1.19-5.69.8-1.55,1.9-2.74,3.32-3.54,1.42-.81,3.06-1.21,4.93-1.21,2.01,0,3.68.41,5,1.21,1.32.81,2.3,1.93,2.95,3.38.65,1.44.97,3.12.97,5.04v1.75h-13.73c.1,1.87.55,3.28,1.34,4.25.8.97,1.95,1.46,3.47,1.46,1.32,0,2.3-.25,2.95-.75.65-.5,1.08-1.19,1.31-2.09h4.4c-.32,1.99-1.2,3.54-2.61,4.66-1.42,1.12-3.42,1.68-6.01,1.68-3.04,0-5.37-.89-7.01-2.67-1.64-1.78-2.46-4.27-2.46-7.48ZM1505.27,213.63c-.62-.87-1.74-1.31-3.36-1.31s-2.77.47-3.47,1.4c-.7.93-1.13,2.16-1.3,3.68h9.18c-.07-1.64-.42-2.9-1.04-3.77Z"/>
    <path class="cls-1" d="M1514.79,209.53h4.59v2.69c.97-1.22,1.99-2.07,3.06-2.56,1.07-.48,2.18-.73,3.32-.73,2.14,0,3.76.6,4.85,1.81,1.09,1.21,1.64,2.94,1.64,5.21v12.98h-4.7v-12.09c0-1.44-.27-2.47-.8-3.08-.54-.61-1.35-.91-2.45-.91-.62,0-1.22.11-1.81.33-.59.22-1.11.57-1.59,1.04-.47.42-.83.88-1.06,1.36-.24.49-.36,1.13-.36,1.92v11.42h-4.7v-19.4Z"/>
    <path class="cls-1" d="M1536.05,219.3c0-2.11.38-3.95,1.16-5.5.77-1.55,1.87-2.75,3.28-3.6s3.11-1.27,5.07-1.27c2.44,0,4.35.6,5.73,1.79,1.38,1.19,2.23,2.86,2.56,5l-4.51.6c-.2-1.09-.58-1.96-1.14-2.61-.56-.65-1.45-.97-2.67-.97-1.67,0-2.85.6-3.56,1.81-.71,1.21-1.06,2.75-1.06,4.65s.35,3.45,1.04,4.68c.7,1.23,1.89,1.85,3.58,1.85,1.24,0,2.18-.34,2.82-1.01.63-.67,1.04-1.58,1.21-2.72h4.55c-.3,2.36-1.18,4.21-2.63,5.54s-3.48,2-6.06,2c-3.01,0-5.32-.91-6.94-2.74-1.62-1.83-2.43-4.32-2.43-7.48Z"/>
    <path class="cls-1" d="M1557.17,219.38c0-2.24.4-4.14,1.19-5.69.8-1.55,1.9-2.74,3.32-3.54,1.42-.81,3.06-1.21,4.93-1.21,2.01,0,3.68.41,5,1.21,1.32.81,2.3,1.93,2.95,3.38.65,1.44.97,3.12.97,5.04v1.75h-13.73c.1,1.87.55,3.28,1.34,4.25.8.97,1.95,1.46,3.47,1.46,1.32,0,2.3-.25,2.95-.75.65-.5,1.08-1.19,1.31-2.09h4.4c-.32,1.99-1.2,3.54-2.61,4.66-1.42,1.12-3.42,1.68-6.01,1.68-3.04,0-5.37-.89-7.01-2.67-1.64-1.78-2.46-4.27-2.46-7.48ZM1569.97,213.63c-.62-.87-1.74-1.31-3.36-1.31s-2.77.47-3.47,1.4c-.7.93-1.13,2.16-1.3,3.68h9.18c-.07-1.64-.42-2.9-1.04-3.77Z"/>
  </g>
</svg>