<?xml version="1.0" encoding="UTF-8"?>
<svg xmlns="http://www.w3.org/2000/svg" xmlns:svg="http://www.w3.org/2000/svg" xmlns:sodipodi="http://sodipodi.sourceforge.net/DTD/sodipodi-0.dtd" xmlns:rdf="http://www.w3.org/1999/02/22-rdf-syntax-ns#" xmlns:inkscape="http://www.inkscape.org/namespaces/inkscape" xmlns:dc="http://purl.org/dc/elements/1.1/" xmlns:cc="http://creativecommons.org/ns#" version="1.1" viewBox="0 0 152.77 53.27">
  <!-- Generator: Adobe Illustrator 30.2.1, SVG Export Plug-In . SVG Version: 2.1.1 Build 1)  -->
  <defs>
    <style>
      .st0 {
        fill: #fff;
      }
    </style>
  </defs>
  <g id="svg706" inkscape:version="0.92.0 r15299" sodipodi:docname="murata.svg">
    <sodipodi:namedview id="base" bordercolor="#666666" borderopacity="1.0" fit-margin-bottom="0" fit-margin-left="0" fit-margin-right="0" fit-margin-top="0" inkscape:current-layer="layer1" inkscape:cx="75.882632" inkscape:cy="26.137172" inkscape:document-units="mm" inkscape:pageopacity="0.0" inkscape:pageshadow="2" inkscape:window-height="744" inkscape:window-maximized="1" inkscape:window-width="1280" inkscape:window-x="-4" inkscape:window-y="-4" inkscape:zoom="5.9104434" pagecolor="#ffffff" showgrid="false" units="px"/>
    <g id="layer1" inkscape:groupmode="layer" inkscape:label="Layer 1">
      <g id="g718">
        <path id="path134" class="st0" d="M152.15,18.87c.04-.08.05-.18.05-.27,0-.38-.31-.69-.7-.69h-.58s-11.13-.01-11.13-.01c-5.2,0-9.41,4.21-9.41,9.41,0,1.7.44,3.31,1.24,4.68.06.1.1.23.1.36,0,.39-.31.7-.7.7h-3.91c-1.51-.14-2.7-1.4-2.7-2.96,0-.19.02-.38.04-.5.98-3.48,2.89-10.17,2.89-10.17l.28-.99c.07-.31.26-.51.59-.51h3.41c.29,0,.54-.18.65-.43,0,0,.33-1.12.33-1.2,0-.38-.31-.69-.7-.69h-2.53c-.39,0-.7-.3-.7-.69,0-.09,1.57-5.55,1.57-5.55,0,0,.19-.65.19-.75,0-.38-.31-.69-.7-.69h-5.83c-.3.01-.56.21-.66.47h0l-1.93,6.69c-.08.31-.35.52-.68.52h-3.26c-.31,0-.58.2-.67.49,0,0-.31,1.09-.31,1.12,0,.39.31.7.7.7h2.5c.38,0,.69.31.69.69,0,.04-1.9,6.69-2.96,10.43-.06.22-.14.61-.2,1.11-.1.99.55,1.84.55,1.84.08.11.13.25.13.4,0,.36-.27.64-.61.68h-5.11s-.16,0-.16,0c-.77,0-1.46-.63-1.46-1.39,0-.12.05-.23.08-.34l1.88-6.56,1.56-5.44s.17-.62.17-.71c0-.38-.31-.69-.69-.69h-.99s-10.71-.02-10.71-.02c-5.2,0-9.41,4.22-9.41,9.42,0,1.71.46,3.31,1.25,4.7,0,0,.07.23.07.32,0,.39-.27.68-.65.68h-4.61c-.77.01-1.4-.62-1.4-1.38,0-.12.02-.24.05-.35l.06-.25h.02l1.99-6.88c.11-.37.21-.76.21-1.17,0-2.58-1.74-2.37-2.26-3.07,0,0-.35-.31.41-.58,2.85-1,5.1-3.12,6.21-5.83.52-1.22.82-2.55.82-3.97,0-4.73-3.63-8.6-8.26-9-.32-.03-.64-.05-.97-.05h-2.87s0,0,0,0h-12.88s0,0,0,0h-2.17c-.34,0-.63.25-.69.57l-.41,1.54c0,.38.31.69.7.69h3.21c.29-.01.54.16.64.41.03.08.05.17.05.26,0,.03-1.99,6.99-3.96,13.88h0c-1.96,6.83-3.91,13.63-3.91,13.63-.24.88-1.05,1.52-2.01,1.52h-1.68c-.77.01-1.44-.62-1.39-1.38.04-.64,3.67-12.99,3.67-13.04,0-.38-.31-.69-.7-.69h-5.81c-.34,0-.63.24-.69.58l-3.71,12.87c-.29.69-.88,1.16-1.57,1.16h-.77c-.64,0-1.14-.63-1.14-1.4,0-.12.01-.25.03-.37l.08-.32.81-2.67,1.8-6.25s.07-.32.07-.62c0-1.64-1.33-2.96-2.96-2.96-.46,0-.89.11-1.28.29l-6.38,2.94c-.23.11-.43.27-.39.62.03.27.25.76.25.76.13.17.34.36.57.29.36-.12,1.47-.64,1.75-.68.38-.04.7.31.7.7,0,.07-.27,1.07-.27,1.07l-1.55,5.44c-.06.24-.07.49-.1.75-.1.99.55,1.84.55,1.84.08.11.13.25.13.4,0,.39-.31.7-.7.7h-4.91c-.77,0-1.39-.63-1.39-1.4,0-.13.02-.25.05-.37l2.73-9.46c.08-.28.15-.63.15-.93,0-1.64-1.33-2.96-2.96-2.96-.46,0-.89.1-1.27.29l-4.76,2.23-.89.42c-.09.04-.22.09-.34.09-.34,0-.63-.25-.69-.58-.28-1.37-1.47-2.45-2.92-2.45-.46,0-.89.1-1.28.29l-5.07,2.38-.57.27c-.1.04-.23.09-.34.09-.34,0-.62-.24-.69-.56-.29-1.39-1.46-2.46-2.92-2.46-.46,0-.89.1-1.28.29h-.03s-7.28,3.38-7.28,3.38c-.24.11-.43.35-.41.63.02.23.23.64.23.64.11.24.35.4.63.4.11,0,.21-.03.3-.07l2.05-.98c.09-.05.2-.07.31-.07.39,0,.69.31.7.7,0,.22-2.46,8.66-2.46,8.66-.24.89-1.05,1.54-2.02,1.54h-1.51c-.31-.01-.58.2-.67.48,0,0-.26.88-.29,1.11-.06.43.31.7.7.7h8.16s1.24-.01,1.24-.01c.3,0,.56-.2.66-.46h0l3.14-10.91c.04-.21.18-.41.36-.51l1.66-.78.9-.43c.09-.04.19-.06.3-.06.39,0,.7.31.7.69,0,.06-.01.12-.03.17-.91,3.38-3.32,11.58-3.32,11.62,0,.38.31.69.7.69h5.81c.34,0,.63-.24.69-.58l3.18-11.03c.07-.12.16-.23.28-.29l1.85-.87.72-.34c.09-.04.19-.06.3-.06.38,0,.76.32.69.69-.07.4-3.09,11.04-3.09,11.04,0,0-.19.65-.19.75,0,.38.31.69.7.69h3.52s36.67,0,36.67,0c1.88,0,3.45-1.17,3.97-2.88l3.03-10.59c.08-.3.35-.51.67-.51h5.59c.77,0,1.4.62,1.4,1.39,0,.09-.01.17-.03.27l-2.01,6.96c-.11.37-.17.77-.17,1.18,0,2.31,1.87,4.18,4.18,4.18h3.4-1.11s64.49,0,64.49,0c1.45,0,1.73-.24,1.79-.55,0,0,.28-1,.28-1.05,0-.39-.31-.7-.7-.7h-1.59c-.77,0-1.46-.62-1.46-1.39,0-.12.05-.22.07-.34l2.26-7.9,1.13-3.93.17-.61ZM86.65,7.52v1.25c0,2.73-1.26,5.16-3.21,6.78-1.47,1.14-3.31,1.83-5.32,1.83h0s-.65,0-.65,0h-1.5c-.38,0-.7-.31-.7-.69l3.65-12.82c.07-.32.35-.55.68-.55h2.82s0,.02,0,.02h0c2.34,0,4.22,1.87,4.22,4.2M106.26,20.92c-.06.21-.92,3.27-.92,3.27l-1.94,6.8c-.25.88-1.06,1.52-2.01,1.52h-.91c-.77,0-1.36-.63-1.36-1.4,0-.1.01-.21.03-.31l2.38-8.36c.34-1.27,1.49-2.21,2.87-2.21h1.18c.39,0,.8.32.7.69M144.27,20.92c0,.07-.7,2.51-.7,2.51l-2.17,7.59c-.26.86-1.06,1.48-2,1.48h-.91c-.77,0-1.36-.63-1.36-1.4,0-.11.01-.22.03-.33l2.37-8.33c.34-1.27,1.49-2.2,2.86-2.2h1.18c.38,0,.7.3.7.69" inkscape:connector-curvature="0"/>
        <path id="path136" class="st0" d="M5.66,46.5h-1.13v6.18h1.13v-6.18ZM13.58,52.68v-6.18h-1.13v3.44c0,.27,0,.63.02.9h-.02c-.15-.25-.32-.49-.61-.86l-2.69-3.48h-1.15v6.18h1.13v-3.64c0-.29,0-.62-.03-.83h.02c.17.26.35.5.61.84l2.79,3.62h1.05ZM21.49,52.68v-6.18h-1.13v3.44c0,.27,0,.63.02.9h-.02c-.15-.25-.32-.49-.61-.86l-2.69-3.48h-1.15v6.18h1.13v-3.64c0-.29,0-.62-.03-.83h.02c.17.26.35.5.61.84l2.8,3.62h1.05ZM29.85,49.59c0-.86-.26-1.63-.78-2.19-.55-.61-1.38-.96-2.37-.96-.94,0-1.72.34-2.27.9-.57.58-.89,1.39-.89,2.31,0,.97.35,1.8.98,2.36.54.5,1.29.76,2.19.76s1.71-.33,2.27-.89c.57-.56.88-1.38.88-2.29M28.64,49.61c0,1.4-.81,2.23-1.95,2.23s-1.96-.83-1.96-2.23.81-2.22,1.96-2.22,1.95.87,1.95,2.22M37.08,46.51h-1.16l-1.47,3.52c-.17.39-.29.74-.4,1.07h-.02c-.11-.34-.25-.72-.39-1.1l-1.34-3.49h-1.24l2.5,6.21h.82l2.71-6.21ZM43.09,52.68l-2.49-6.21h-.83l-2.4,6.21h1.12l.57-1.55h2.2l.61,1.55h1.21ZM40.92,50.2h-1.5l.53-1.44c.1-.29.19-.53.23-.75h0c.05.21.12.46.23.77l.5,1.42ZM48.61,46.5h-4.9v.95h1.79v5.23h1.14v-5.23h1.69l.27-.95ZM55.9,49.59c0-.86-.26-1.63-.78-2.19-.55-.61-1.38-.96-2.37-.96-.94,0-1.72.34-2.27.9-.57.58-.89,1.39-.89,2.31,0,.97.35,1.8.98,2.36.54.5,1.28.76,2.19.76s1.71-.33,2.27-.89c.57-.56.88-1.38.88-2.29M54.69,49.61c0,1.4-.81,2.23-1.95,2.23s-1.96-.83-1.96-2.23.81-2.22,1.96-2.22,1.95.87,1.95,2.22M62.53,52.68c-.95-1.58-1.57-2.64-1.85-2.8h0c.58-.25,1.14-.81,1.14-1.63,0-.95-.6-1.74-2.2-1.74h-1.67v6.18h1.13v-2.44h.53c.23.08.67.84,1.62,2.44h1.29ZM60.68,48.38c0,.56-.44,1-1.02,1h-.57v-1.92h.56c.7,0,1.03.41,1.03.92M69.13,46.5h-1.13v6.18h1.13v-6.18ZM77.05,52.68v-6.18h-1.13v3.44c0,.27,0,.63.02.9h-.02c-.15-.25-.32-.49-.61-.86l-2.69-3.48h-1.15v6.18h1.13v-3.64c0-.29,0-.62-.03-.83h.02c.17.26.35.5.61.84l2.8,3.62h1.05ZM86.51,52.68v-.95h-2.31v-1.74h2v-.95h-2v-1.6h2l.31-.95h-3.44v6.18h3.44ZM91.95,52.68v-.96h-2.21v-5.22h-1.13v6.18h3.35ZM97.17,52.68v-.95h-2.31v-1.74h2v-.95h-2v-1.6h2l.31-.95h-3.44v6.18h3.44ZM104.09,52.19l-.31-.82c-.47.25-.96.41-1.52.41-1.28,0-2.06-.97-2.06-2.21,0-1.16.71-2.2,2.15-2.2.55,0,1.05.13,1.57.44v-1.03c-.36-.21-.94-.34-1.6-.34-2.04,0-3.35,1.43-3.35,3.21s1.14,3.12,3.11,3.12c.67,0,1.32-.17,2.01-.58M110.45,46.5h-4.9v.95h1.79v5.23h1.14v-5.23h1.69l.27-.95ZM116.75,52.68c-.95-1.58-1.57-2.64-1.85-2.8h0c.58-.25,1.14-.81,1.14-1.63,0-.95-.6-1.74-2.2-1.74h-1.67v6.18h1.13v-2.44h.53c.23.08.67.84,1.62,2.44h1.29ZM114.91,48.38c0,.56-.44,1-1.02,1h-.57v-1.92h.56c.7,0,1.03.41,1.03.92M124.28,49.59c0-.86-.26-1.63-.78-2.19-.55-.61-1.38-.96-2.37-.96-.94,0-1.72.34-2.27.9-.57.58-.89,1.39-.89,2.31,0,.97.35,1.8.98,2.36.54.5,1.28.76,2.19.76s1.71-.33,2.27-.89c.57-.56.88-1.38.88-2.29M123.07,49.61c0,1.4-.81,2.23-1.95,2.23s-1.96-.83-1.96-2.23.81-2.22,1.96-2.22,1.95.87,1.95,2.22M131.9,52.68v-6.18h-1.13v3.44c0,.27,0,.63.02.9h-.02c-.15-.25-.32-.49-.61-.86l-2.69-3.48h-1.15v6.18h1.13v-3.64c0-.29,0-.62-.03-.83h.02c.17.26.35.5.61.84l2.79,3.62h1.05ZM135.37,46.5h-1.13v6.18h1.13v-6.18ZM142.54,52.19l-.31-.82c-.47.25-.96.41-1.52.41-1.28,0-2.06-.97-2.06-2.21,0-1.16.71-2.2,2.15-2.2.55,0,1.05.13,1.57.44v-1.03c-.36-.21-.94-.34-1.6-.34-2.04,0-3.35,1.43-3.35,3.21s1.14,3.12,3.11,3.12c.67,0,1.32-.17,2.01-.58M148.26,51c0-1.92-2.67-1.86-2.67-3,0-.41.39-.63.89-.63s.97.17,1.44.43l.02-1.01c-.34-.19-.86-.35-1.52-.35-1.29,0-2.02.78-2.02,1.7,0,.48.16.83.4,1.11.75.84,2.25,1,2.25,1.89,0,.52-.54.71-1.02.71-.58,0-1.06-.23-1.4-.47l-.46.83c.41.28,1.03.56,1.9.56,1.22,0,2.18-.68,2.18-1.77" inkscape:connector-curvature="0"/>
      </g>
    </g>
  </g>
</svg>